<mxfile host="app.diagrams.net" agent="Mozilla/5.0 (Windows NT 10.0; Win64; x64) AppleWebKit/537.36 (KHTML, like Gecko) Chrome/134.0.0.0 Safari/537.36" version="26.1.1">
  <diagram name="Page-1" id="E284SFUmC9vIkJ_m_Efq">
    <mxGraphModel dx="1222" dy="634" grid="1" gridSize="10" guides="1" tooltips="1" connect="1" arrows="1" fold="1" page="1" pageScale="1" pageWidth="850" pageHeight="1100" math="0" shadow="0">
      <root>
        <mxCell id="0" />
        <mxCell id="1" parent="0" />
        <mxCell id="BybNODf_VsRNANN16Aah-1" value="User-Service" style="rounded=0;whiteSpace=wrap;html=1;fillColor=#dae8fc;strokeColor=#6c8ebf;" vertex="1" parent="1">
          <mxGeometry x="190" y="130" width="120" height="50" as="geometry" />
        </mxCell>
        <mxCell id="BybNODf_VsRNANN16Aah-2" value="Task-Service" style="rounded=0;whiteSpace=wrap;html=1;fillColor=#dae8fc;strokeColor=#6c8ebf;" vertex="1" parent="1">
          <mxGeometry x="190" y="310" width="120" height="50" as="geometry" />
        </mxCell>
        <mxCell id="BybNODf_VsRNANN16Aah-3" value="Notes-Service" style="rounded=0;whiteSpace=wrap;html=1;fillColor=#dae8fc;strokeColor=#6c8ebf;" vertex="1" parent="1">
          <mxGeometry x="190" y="220" width="120" height="50" as="geometry" />
        </mxCell>
        <mxCell id="BybNODf_VsRNANN16Aah-8" style="edgeStyle=orthogonalEdgeStyle;rounded=0;orthogonalLoop=1;jettySize=auto;html=1;entryX=1;entryY=0.5;entryDx=0;entryDy=0;" edge="1" parent="1" source="BybNODf_VsRNANN16Aah-4" target="BybNODf_VsRNANN16Aah-1">
          <mxGeometry relative="1" as="geometry" />
        </mxCell>
        <mxCell id="BybNODf_VsRNANN16Aah-11" style="edgeStyle=orthogonalEdgeStyle;rounded=0;orthogonalLoop=1;jettySize=auto;html=1;entryX=1;entryY=0.5;entryDx=0;entryDy=0;" edge="1" parent="1" source="BybNODf_VsRNANN16Aah-4" target="BybNODf_VsRNANN16Aah-2">
          <mxGeometry relative="1" as="geometry" />
        </mxCell>
        <mxCell id="BybNODf_VsRNANN16Aah-12" style="edgeStyle=orthogonalEdgeStyle;rounded=0;orthogonalLoop=1;jettySize=auto;html=1;entryX=1;entryY=0.5;entryDx=0;entryDy=0;" edge="1" parent="1" source="BybNODf_VsRNANN16Aah-4" target="BybNODf_VsRNANN16Aah-3">
          <mxGeometry relative="1" as="geometry" />
        </mxCell>
        <mxCell id="BybNODf_VsRNANN16Aah-4" value="API-Gateway" style="rounded=0;whiteSpace=wrap;html=1;fillColor=#ffe6cc;strokeColor=#d79b00;" vertex="1" parent="1">
          <mxGeometry x="490" y="222.5" width="120" height="45" as="geometry" />
        </mxCell>
        <mxCell id="BybNODf_VsRNANN16Aah-5" value="user_db" style="shape=cylinder3;whiteSpace=wrap;html=1;boundedLbl=1;backgroundOutline=1;size=15;fillColor=#1ba1e2;fontColor=#ffffff;strokeColor=#006EAF;" vertex="1" parent="1">
          <mxGeometry x="20" y="117.5" width="60" height="75" as="geometry" />
        </mxCell>
        <mxCell id="BybNODf_VsRNANN16Aah-6" value="notes_db" style="shape=cylinder3;whiteSpace=wrap;html=1;boundedLbl=1;backgroundOutline=1;size=15;fillColor=#a20025;fontColor=#ffffff;strokeColor=#6F0000;" vertex="1" parent="1">
          <mxGeometry x="20" y="207.5" width="60" height="75" as="geometry" />
        </mxCell>
        <mxCell id="BybNODf_VsRNANN16Aah-7" value="task_db" style="shape=cylinder3;whiteSpace=wrap;html=1;boundedLbl=1;backgroundOutline=1;size=15;fillColor=#60a917;fontColor=#ffffff;strokeColor=#2D7600;" vertex="1" parent="1">
          <mxGeometry x="20" y="297.5" width="60" height="75" as="geometry" />
        </mxCell>
        <mxCell id="BybNODf_VsRNANN16Aah-13" style="edgeStyle=orthogonalEdgeStyle;rounded=0;orthogonalLoop=1;jettySize=auto;html=1;entryX=1;entryY=0.5;entryDx=0;entryDy=0;entryPerimeter=0;" edge="1" parent="1" source="BybNODf_VsRNANN16Aah-1" target="BybNODf_VsRNANN16Aah-5">
          <mxGeometry relative="1" as="geometry" />
        </mxCell>
        <mxCell id="BybNODf_VsRNANN16Aah-14" style="edgeStyle=orthogonalEdgeStyle;rounded=0;orthogonalLoop=1;jettySize=auto;html=1;entryX=1;entryY=0.5;entryDx=0;entryDy=0;entryPerimeter=0;" edge="1" parent="1" source="BybNODf_VsRNANN16Aah-3" target="BybNODf_VsRNANN16Aah-6">
          <mxGeometry relative="1" as="geometry" />
        </mxCell>
        <mxCell id="BybNODf_VsRNANN16Aah-15" style="edgeStyle=orthogonalEdgeStyle;rounded=0;orthogonalLoop=1;jettySize=auto;html=1;entryX=1;entryY=0.5;entryDx=0;entryDy=0;entryPerimeter=0;" edge="1" parent="1" source="BybNODf_VsRNANN16Aah-2" target="BybNODf_VsRNANN16Aah-7">
          <mxGeometry relative="1" as="geometry" />
        </mxCell>
        <mxCell id="BybNODf_VsRNANN16Aah-18" style="edgeStyle=orthogonalEdgeStyle;rounded=0;orthogonalLoop=1;jettySize=auto;html=1;entryX=1;entryY=0.5;entryDx=0;entryDy=0;" edge="1" parent="1" source="BybNODf_VsRNANN16Aah-17" target="BybNODf_VsRNANN16Aah-4">
          <mxGeometry relative="1" as="geometry" />
        </mxCell>
        <mxCell id="BybNODf_VsRNANN16Aah-17" value="Client" style="sketch=0;outlineConnect=0;fontColor=#232F3E;gradientColor=none;strokeColor=#232F3E;fillColor=#ffffff;dashed=0;verticalLabelPosition=bottom;verticalAlign=top;align=center;html=1;fontSize=12;fontStyle=0;aspect=fixed;shape=mxgraph.aws4.resourceIcon;resIcon=mxgraph.aws4.client;" vertex="1" parent="1">
          <mxGeometry x="730" y="200" width="90" height="90" as="geometry" />
        </mxCell>
        <mxCell id="BybNODf_VsRNANN16Aah-19" value="http://localhost:8080" style="text;html=1;align=center;verticalAlign=middle;resizable=0;points=[];autosize=1;strokeColor=none;fillColor=none;" vertex="1" parent="1">
          <mxGeometry x="610" y="207.5" width="130" height="30" as="geometry" />
        </mxCell>
        <mxCell id="BybNODf_VsRNANN16Aah-24" value="/user-service/**" style="text;html=1;align=center;verticalAlign=middle;resizable=0;points=[];autosize=1;strokeColor=none;fillColor=none;" vertex="1" parent="1">
          <mxGeometry x="310" y="117.5" width="100" height="30" as="geometry" />
        </mxCell>
        <mxCell id="BybNODf_VsRNANN16Aah-25" value="/notes-service/**" style="text;html=1;align=center;verticalAlign=middle;resizable=0;points=[];autosize=1;strokeColor=none;fillColor=none;" vertex="1" parent="1">
          <mxGeometry x="305" y="220" width="110" height="30" as="geometry" />
        </mxCell>
        <mxCell id="BybNODf_VsRNANN16Aah-26" value="/task-service/**" style="text;html=1;align=center;verticalAlign=middle;resizable=0;points=[];autosize=1;strokeColor=none;fillColor=none;" vertex="1" parent="1">
          <mxGeometry x="310" y="308" width="100" height="30" as="geometry" />
        </mxCell>
        <mxCell id="BybNODf_VsRNANN16Aah-27" value="Single-Entry Point" style="text;html=1;align=center;verticalAlign=middle;resizable=0;points=[];autosize=1;strokeColor=none;fillColor=none;" vertex="1" parent="1">
          <mxGeometry x="500" y="278" width="120" height="30" as="geometry" />
        </mxCell>
      </root>
    </mxGraphModel>
  </diagram>
</mxfile>
